<svg width="498" height="498" viewBox="0 0 498 498" fill="none" xmlns="http://www.w3.org/2000/svg">
<path d="M481.533 192.617C476.15 126.248 473.459 93.0628 460.93 71.5927C425.059 10.1174 320.766 -4.50395 254.897 1.10296C166.715 8.60727 65.8346 59.3005 21.4287 157.176C-18.9034 246.075 -0.306067 346.703 60.4657 412.529C171.87 533.199 401.672 511.654 457.809 432.473C480.212 400.873 481.827 350.4 484.2 276.258C485.341 240.568 483.115 212.126 481.533 192.617Z" fill="#F4F7FA"/>
<path d="M439.276 40.6055C433.575 35.8886 424.927 33.3197 417.616 32.8009C365.795 29.1287 358.232 137.449 366.175 161.657C374.118 185.865 368.971 193.813 328.158 206.479C287.344 219.144 306.924 243.529 311.899 257.79C316.873 272.051 326.724 284.098 296.972 298.268C267.219 312.438 277.559 321.218 277.559 321.218C277.559 321.218 332.427 377.342 329.396 359.374C326.365 341.405 331.857 314.273 381.05 312.21C402.24 311.322 434.687 301.215 441.872 278.526C443.546 273.243 444.709 265.173 443.437 259.705C441.671 252.119 436.693 246.143 433.929 239.003C427.487 222.365 443.645 210.181 452.944 199.059C457.799 193.254 462.651 187.3 466.368 180.681C474.087 166.937 471.196 152.198 462.791 139.53C458.76 133.455 453.16 127.01 451.402 119.763C449.513 111.98 451.16 101.345 451.608 93.3382C451.96 87.058 452.558 80.8026 452.205 74.5063C451.551 62.7986 448.808 48.4917 439.276 40.6055Z" fill="url(#paint0_linear_393_370)"/>
<g opacity="0.8">
<g opacity="0.8">
<path opacity="0.8" d="M273.244 352.719C272.889 352.847 272.485 352.695 272.306 352.353C272.111 351.978 272.254 351.514 272.629 351.319C272.86 351.198 295.959 339.048 321.727 319.036C345.471 300.597 376.403 271.523 388.927 237.723C399.387 209.495 408.926 162.828 415.099 109.69C420.635 62.0401 421.509 26.7997 419.157 20.2583C419.013 19.8603 419.221 19.4215 419.619 19.2776C420.017 19.1337 420.456 19.3415 420.6 19.7395C423.352 27.393 421.605 66.9808 416.624 109.868C410.438 163.123 400.867 209.918 390.366 238.256C377.713 272.403 346.557 301.7 322.647 320.264C296.773 340.354 273.573 352.555 273.342 352.676C273.308 352.692 273.276 352.706 273.244 352.719Z" fill="white"/>
</g>
<g opacity="0.8">
<path opacity="0.8" d="M415.015 118.927C414.619 119.069 414.216 118.959 414.07 118.563C413.878 118.039 394.56 66.0646 369.648 54.3302C369.264 54.1508 369.11 53.7173 369.289 53.3336C369.471 52.9498 369.931 52.7988 370.313 52.9782C395.794 64.9809 414.711 115.864 415.506 118.03C415.651 118.428 415.417 118.783 415.019 118.925C415.017 118.927 415.015 118.927 415.015 118.927Z" fill="white"/>
</g>
<g opacity="0.8">
<path opacity="0.8" d="M405.594 179.201C405.299 179.307 404.954 179.224 404.743 178.966C404.474 178.639 404.521 178.156 404.848 177.888C404.99 177.77 419.213 166.104 436.762 156.313C460.474 143.084 478.647 139.391 490.774 145.337C491.154 145.524 491.311 145.982 491.124 146.362C490.938 146.742 490.479 146.899 490.099 146.712C462.196 133.032 406.381 178.607 405.821 179.069C405.752 179.128 405.674 179.172 405.594 179.201Z" fill="white"/>
</g>
<g opacity="0.8">
<path opacity="0.8" d="M343.67 302.403C343.592 302.431 343.511 302.445 343.424 302.447C343.001 302.454 342.652 302.116 342.645 301.692C342.642 301.47 342.247 279.17 337.58 255.673C333.301 234.13 324.464 207.145 306.669 200.927C306.27 200.787 306.058 200.35 306.199 199.952C306.337 199.552 306.776 199.341 307.174 199.481C322.012 204.665 332.748 223.478 339.087 255.396C343.779 279.026 344.173 301.445 344.177 301.669C344.184 302.006 343.971 302.294 343.67 302.403Z" fill="white"/>
</g>
<g opacity="0.8">
<path opacity="0.8" d="M375.335 266.375C375.024 266.487 374.665 266.387 374.459 266.108C374.207 265.767 374.28 265.287 374.619 265.037C377.087 263.212 435.295 220.42 457.994 224.506C458.412 224.58 458.687 224.98 458.613 225.396C458.538 225.813 458.14 226.091 457.722 226.014C435.666 222.044 376.129 265.826 375.53 266.268C375.47 266.316 375.402 266.35 375.335 266.375Z" fill="white"/>
</g>
</g>
<path d="M484.758 200.149C480.99 193.782 473.72 188.438 467.017 185.477C419.493 164.486 375.725 263.858 375.008 289.325C374.29 314.793 366.757 320.531 324.067 318.639C281.376 316.747 291.549 346.32 291.405 361.423C291.261 376.526 296.454 391.195 263.662 394.462C230.869 397.729 237.627 409.488 237.627 409.488C237.627 409.488 270.269 480.868 273.497 462.934C276.725 444.999 291.073 421.326 338.062 436.033C358.301 442.366 392.255 443.835 406.693 424.916C410.056 420.51 413.881 413.312 414.533 407.735C415.437 400 412.776 392.691 412.59 385.037C412.156 367.2 431.485 361.203 443.998 353.885C450.53 350.065 457.111 346.103 462.849 341.132C474.763 330.812 477.032 315.965 473.409 301.2C471.672 294.12 468.582 286.159 469.38 278.746C470.236 270.783 475.385 261.332 478.515 253.948C480.97 248.158 483.651 242.473 485.449 236.429C488.798 225.185 491.06 210.795 484.758 200.149Z" fill="url(#paint1_linear_393_370)"/>
<g opacity="0.8">
<g opacity="0.8">
<path opacity="0.8" d="M222.908 437.668C222.532 437.668 222.203 437.389 222.15 437.006C222.093 436.586 222.386 436.199 222.805 436.142C223.063 436.107 248.91 432.49 279.93 422.377C308.511 413.061 347.458 396.167 370.68 368.6C390.075 345.575 414.842 304.89 438.631 256.975C459.962 214.01 472.709 181.143 472.709 174.191C472.709 173.768 473.052 173.426 473.475 173.426C473.898 173.426 474.241 173.768 474.241 174.191C474.241 182.324 459.202 218.986 440.002 257.657C416.16 305.677 391.32 346.474 371.85 369.588C348.391 397.438 309.158 414.464 280.377 423.843C249.232 433.993 223.271 437.624 223.011 437.659C222.979 437.667 222.944 437.668 222.908 437.668Z" fill="white"/>
</g>
<g opacity="0.8">
<path opacity="0.8" d="M435.429 265.798C435.008 265.798 434.665 265.478 434.663 265.057C434.659 264.499 434.068 209.014 414.596 189.543C414.296 189.245 414.296 188.763 414.596 188.465C414.895 188.166 415.38 188.168 415.68 188.466C435.597 208.384 436.18 262.74 436.196 265.046C436.2 265.469 435.859 265.798 435.434 265.798C435.43 265.798 435.429 265.798 435.429 265.798Z" fill="white"/>
</g>
<g opacity="0.8">
<path opacity="0.8" d="M406.167 319.172C405.852 319.172 405.557 318.976 405.445 318.663C405.303 318.265 405.509 317.827 405.909 317.683C406.081 317.621 423.414 311.454 443.242 308.18C470.031 303.754 488.382 306.43 497.784 316.128C498.078 316.432 498.07 316.917 497.766 317.212C497.462 317.507 496.977 317.498 496.682 317.194C475.054 294.88 407.11 318.88 406.426 319.125C406.339 319.157 406.252 319.172 406.167 319.172Z" fill="white"/>
</g>
<g opacity="0.8">
<path opacity="0.8" d="M306.207 414.152C306.126 414.152 306.042 414.138 305.959 414.111C305.559 413.974 305.344 413.539 305.483 413.138C305.554 412.926 312.729 391.81 316.288 368.119C319.55 346.398 320.365 318.015 305.724 306.142C305.396 305.876 305.346 305.393 305.612 305.064C305.879 304.735 306.362 304.684 306.691 304.952C318.899 314.851 322.637 336.188 317.8 368.366C314.22 392.19 307.005 413.42 306.932 413.633C306.824 413.951 306.525 414.152 306.207 414.152Z" fill="white"/>
</g>
<g opacity="0.8">
<path opacity="0.8" d="M348.193 390.964C347.863 390.964 347.559 390.749 347.46 390.419C347.337 390.014 347.568 389.585 347.973 389.465C350.912 388.583 420.167 368.01 440.144 379.537C440.51 379.748 440.636 380.217 440.425 380.583C440.214 380.949 439.745 381.076 439.379 380.864C419.966 369.664 349.126 390.719 348.414 390.932C348.341 390.953 348.266 390.964 348.193 390.964Z" fill="white"/>
</g>
</g>
<path d="M325.454 21.1339L324.906 25.0531C323.089 25.1366 321.302 25.3711 319.562 25.762L318.081 22.1057C317.678 21.1091 316.535 20.6347 315.531 21.0487L309.248 23.6372C308.242 24.0511 307.752 25.1988 308.153 26.1972L309.642 29.8996C308.119 30.8697 306.68 31.9676 305.341 33.1828L302.186 30.7346C301.333 30.0737 300.096 30.2372 299.423 31.1006L295.202 36.5014C294.525 37.3666 294.669 38.6067 295.522 39.2694L298.689 41.7317C297.845 43.3164 297.137 44.99 296.565 46.7364L292.544 46.2087C291.464 46.0666 290.458 46.8323 290.299 47.9196L289.288 54.731C289.126 55.8219 289.872 56.8239 290.954 56.966L294.987 57.4954C295.035 59.3342 295.236 61.1427 295.593 62.9033L291.809 64.481C290.789 64.9056 290.288 66.0799 290.689 67.1014L293.21 73.5078C293.614 74.5347 294.77 75.0197 295.793 74.5915L299.579 73.0068C300.532 74.556 301.617 76.0164 302.822 77.3737L300.299 80.6497C299.617 81.5362 299.762 82.8047 300.626 83.4834L306.034 87.7259C306.899 88.4045 308.155 88.234 308.835 87.3439L311.328 84.0892C312.92 84.9366 314.604 85.6419 316.361 86.2051L315.794 90.2664C315.64 91.3785 316.398 92.3965 317.489 92.5386L324.317 93.434C325.409 93.5779 326.417 92.7909 326.569 91.6788L327.12 87.6477C328.977 87.5677 330.801 87.3279 332.576 86.9282L334.074 90.6519C334.489 91.6859 335.653 92.1744 336.673 91.7427L343.04 89.0441C344.058 88.6124 344.543 87.4274 344.126 86.397L342.628 82.6999C344.182 81.6961 345.646 80.5573 347.004 79.2977L350.116 81.7174C350.987 82.3943 352.234 82.2238 352.902 81.3372L357.072 75.8085C357.738 74.9255 357.573 73.6659 356.704 72.9926L353.62 70.6013C354.46 68.9722 355.158 67.2507 355.713 65.4581L359.568 65.9644C360.65 66.1065 361.641 65.3337 361.781 64.2393L362.657 57.4101C362.798 56.3211 362.035 55.3226 360.955 55.1805L357.111 54.676C357.031 52.8141 356.796 50.9878 356.402 49.2129L359.967 47.7206C360.969 47.3013 361.444 46.143 361.028 45.1339L358.424 38.8377C358.008 37.8321 356.86 37.356 355.858 37.7735L352.271 39.2694C351.294 37.7362 350.189 36.29 348.961 34.9523L351.331 31.8592C351.991 30.9976 351.829 29.7664 350.973 29.1073L345.616 24.9909C344.76 24.3336 343.532 24.4953 342.871 25.3533L340.487 28.4499C338.906 27.6292 337.236 26.9469 335.493 26.4069L336.024 22.5179C336.17 21.4484 335.422 20.4659 334.351 20.3256L327.658 19.448C326.592 19.3112 325.603 20.0627 325.454 21.1339ZM301.859 52.8798C303.793 39.4204 316.146 29.9849 329.462 31.7313C342.777 33.4777 352.129 45.761 350.34 59.2382C348.54 72.799 336.161 82.4192 322.7 80.655C309.239 78.8891 299.913 66.421 301.859 52.8798Z" fill="#D8DEE8"/>
<path d="M222.835 19.009L221.989 25.0689C219.18 25.1968 216.416 25.5593 213.726 26.1633L211.436 20.5102C210.811 18.9681 209.046 18.2362 207.496 18.8757L197.779 22.8784C196.225 23.5197 195.466 25.291 196.088 26.8384L198.391 32.5626C196.037 34.062 193.81 35.7587 191.741 37.6401L186.855 33.8542C185.539 32.8326 183.625 33.0867 182.584 34.4191L176.057 42.7691C175.011 44.1069 175.233 46.0238 176.551 47.0489L181.449 50.8579C180.145 53.3078 179.047 55.8963 178.162 58.595L171.946 57.7795C170.278 57.561 168.723 58.7442 168.473 60.4248L166.911 70.9582C166.661 72.646 167.815 74.1934 169.489 74.4119L175.723 75.2292C175.798 78.0717 176.107 80.8698 176.661 83.5916L170.811 86.0308C169.233 86.6882 168.459 88.5021 169.08 90.0832L172.978 99.9877C173.602 101.574 175.391 102.326 176.972 101.663L182.826 99.2131C184.297 101.608 185.976 103.866 187.839 105.964L183.94 111.029C182.884 112.401 183.11 114.362 184.446 115.41L192.808 121.969C194.146 123.019 196.088 122.755 197.142 121.38L200.995 116.348C203.456 117.659 206.062 118.75 208.778 119.621L207.901 125.901C207.661 127.621 208.833 129.195 210.523 129.415L221.079 130.799C222.767 131.021 224.327 129.804 224.561 128.084L225.414 121.852C228.285 121.73 231.106 121.358 233.849 120.74L236.164 126.498C236.807 128.097 238.607 128.852 240.183 128.184L250.029 124.013C251.601 123.346 252.353 121.513 251.706 119.917L249.389 114.2C251.793 112.649 254.056 110.887 256.156 108.94L260.967 112.681C262.312 113.728 264.24 113.463 265.274 112.095L271.721 103.548C272.75 102.184 272.496 100.235 271.152 99.1936L266.384 95.4983C267.685 92.9773 268.763 90.316 269.619 87.5463L275.582 88.3279C277.255 88.5482 278.788 87.3526 279.005 85.6613L280.359 75.1012C280.576 73.4153 279.396 71.8732 277.728 71.6547L271.783 70.8747C271.661 67.9967 271.298 65.1719 270.687 62.4288L276.202 60.121C277.753 59.4726 278.486 57.6818 277.84 56.1219L273.812 46.3862C273.169 44.8317 271.394 44.0962 269.847 44.7411L264.302 47.0524C262.792 44.6807 261.081 42.4457 259.185 40.3796L262.849 35.597C263.868 34.2663 263.62 32.3618 262.293 31.3421L254.01 24.9783C252.687 23.9621 250.787 24.2126 249.766 25.5397L246.078 30.3276C243.631 29.0592 241.05 28.0039 238.357 27.1671L239.179 21.1533C239.405 19.4993 238.246 17.9821 236.592 17.7654L226.244 16.4081C224.593 16.1913 223.066 17.355 222.835 19.009ZM186.352 68.0944C189.342 47.2834 208.442 32.694 229.03 35.3945C249.617 38.0949 264.076 57.0866 261.312 77.926C258.53 98.8916 239.391 113.769 218.578 111.038C197.763 108.309 183.343 89.0297 186.352 68.0944Z" fill="#D8DEE8"/>
<path d="M212.934 77.6899L167.674 453.89C166.995 459.53 170.882 464.587 176.329 465.127L364.847 485.824C376.395 486.542 382.717 480.642 383.432 474.644L430.95 74.6803C431.659 68.7163 425.993 63.3137 414.396 63.3137L224.164 67.3199C218.655 67.4141 213.609 72.0794 212.934 77.6899Z" fill="url(#paint2_linear_393_370)"/>
<path d="M204.449 77.0431L158.94 455.125C158.258 460.794 162.159 465.876 167.624 466.42L363.063 485.879C369.19 486.488 374.806 482.056 375.522 476.028L423.307 73.9981C424.019 68.0021 419.519 63.184 413.324 63.2888L215.718 66.6234C210.193 66.7141 205.128 71.4042 204.449 77.0431Z" fill="url(#paint3_linear_393_370)"/>
<path d="M208.158 97.8969L165.977 448.454C165.339 453.75 168.993 458.49 174.108 458.987L357.912 476.854C363.608 477.408 368.828 473.271 369.496 467.658L413.656 96.2766C414.321 90.6946 410.142 86.1767 404.388 86.2389L218.697 88.2163C213.529 88.2696 208.792 92.6275 208.158 97.8969Z" fill="#D8DEE8"/>
<path d="M306.724 76.782C306.482 78.7948 307.926 80.4062 309.952 80.3796C311.979 80.3547 313.819 78.6989 314.061 76.6825C314.303 74.6661 312.853 73.0547 310.826 73.0849C308.799 73.1151 306.963 74.7709 306.724 76.782Z" fill="url(#paint4_linear_393_370)"/>
<path d="M239.936 333.213C277.564 263.644 333.777 242.819 350.701 171.119C359.848 132.363 353.616 95.2677 343.118 64.4723L413.327 63.2873C419.522 63.1825 424.022 68.0024 423.31 73.9966L375.525 476.026C374.809 482.056 369.193 486.489 363.066 485.878L209.432 470.581C208.293 408.244 223.161 364.224 239.936 333.213Z" fill="white"/>
<path d="M18.8975 116.941C18.8975 79.9735 51.1443 50.0113 89.842 50.0149C127.396 50.0184 157.033 78.4048 157.033 113.416C157.033 148.427 127.396 178.326 89.842 180.246C51.1426 182.225 18.8975 153.908 18.8975 116.941Z" fill="url(#paint5_linear_393_370)"/>
<path d="M23.0684 113.993C23.0684 77.0258 54.3825 47.0636 91.9592 47.0671C128.425 47.0707 157.206 75.457 157.206 110.468C157.206 145.48 128.425 175.378 91.9592 177.298C54.3807 179.277 23.0684 150.959 23.0684 113.993Z" fill="url(#paint6_linear_393_370)"/>
<g opacity="0.5">
<path opacity="0.5" d="M33.7891 113.71C33.7891 82.6521 60.0968 57.4778 91.6686 57.4832C122.306 57.4867 146.487 81.3356 146.487 110.751C146.487 140.166 122.308 165.285 91.6686 166.898C60.0968 168.561 33.7891 144.769 33.7891 113.71Z" fill="white"/>
</g>
<path opacity="0.5" d="M89.4959 62.2551C120.133 62.2586 144.314 86.1076 144.314 115.523C144.314 122.517 142.934 129.263 140.438 135.513C144.304 127.987 146.489 119.564 146.489 110.751C146.489 81.3356 122.309 57.4867 91.6704 57.4832C67.3205 57.4814 46.1151 72.4616 37.6816 93.5604C47.2308 75.011 67.0256 62.2533 89.4959 62.2551Z" fill="white"/>
<path d="M65.4912 106.109V133.216C65.4912 141.052 72.0841 147.235 80.1925 147.024L100.298 146.499C108.309 146.29 114.783 139.835 114.783 132.081V105.26L65.4912 106.109ZM84.0068 134.133L87.743 122.81C86.1423 121.984 85.0586 120.357 85.0586 118.461C85.0586 115.679 87.393 113.379 90.2675 113.325C93.1385 113.27 95.4641 115.477 95.4641 118.253C95.4641 120.146 94.3839 121.814 92.7885 122.706L96.5105 133.841L84.0068 134.133Z" fill="white"/>
<path d="M109.067 102.909C106.934 102.945 105.203 101.294 105.203 99.2209C105.203 91.2529 98.5144 84.8571 90.2656 84.9637C81.9885 85.0703 75.2321 91.681 75.2321 99.6988C75.2321 101.784 73.4787 103.504 71.313 103.542C69.1455 103.577 67.3867 101.914 67.3867 99.8249C67.3867 87.6215 77.6785 77.5767 90.2674 77.4363C102.789 77.296 112.924 87.0139 112.924 99.1C112.924 101.168 111.199 102.874 109.067 102.909Z" fill="white"/>
<path d="M155.635 257.52C155.635 257.52 154.267 252.393 155.237 251.081C156.206 249.77 162.13 244.529 161.562 246.238C160.992 247.948 160.137 249.086 160.137 249.086C160.137 249.086 163.328 250.568 161.276 252.789C159.226 255.011 158.54 255.523 158.426 257.518C158.314 259.513 157.003 260.197 155.635 257.52Z" fill="url(#paint7_linear_393_370)"/>
<path d="M98.7226 478.842C98.7226 478.842 97.9978 483.276 98.0902 484.854C98.1825 486.432 115.696 487.238 115.872 486.057C116.048 484.875 112.978 482.994 110.816 482.331C108.654 481.667 102.326 479.897 102.326 479.897L98.7226 478.842Z" fill="url(#paint8_linear_393_370)"/>
<path d="M102.973 474.422L102.415 479.936C102.415 479.936 100.381 481.281 98.5886 480.244L97.6914 474.242L102.973 474.422Z" fill="url(#paint9_linear_393_370)"/>
<path d="M67.4746 486.03C67.4746 486.03 66.7497 490.465 66.8421 492.042C66.9345 493.62 84.4481 494.426 84.624 493.245C84.8017 492.064 81.7299 490.182 79.5678 489.519C77.4057 488.857 71.0775 487.086 71.0775 487.086L67.4746 486.03Z" fill="url(#paint10_linear_393_370)"/>
<path d="M71.7261 481.61L71.1683 487.124C71.1683 487.124 69.1341 488.469 67.3415 487.432L66.4443 481.43L71.7261 481.61Z" fill="url(#paint11_linear_393_370)"/>
<path d="M99.7959 330.472C101.819 334.576 103.845 338.68 105.868 342.784C107.496 366.204 108.306 391.674 107.785 418.911C107.398 439.174 106.316 458.37 104.76 476.389C102.015 476.262 99.27 476.136 96.5252 476.01C92.5563 468.133 87.8714 456.199 87.4397 441.468C86.9902 426.102 91.6484 424.061 91.3535 409.349C90.9698 390.279 82.9734 385.191 78.7131 362.253C77.084 353.481 75.9878 342.023 77.2901 328.123C84.7926 328.907 92.2933 329.69 99.7959 330.472Z" fill="url(#paint12_linear_393_370)"/>
<path opacity="0.3" d="M77.2918 328.123C81.3424 328.546 85.3931 328.969 89.4455 329.392C96.7384 342.082 98.7743 355.289 97.4934 361.132C95.6831 369.399 90.8934 372.046 91.1581 380.344C91.4193 388.556 96.2569 390.686 99.3251 400.363C101.45 407.064 100.888 413.226 99.6804 425.274C97.2465 449.544 91.3855 456.967 96.2942 464.924C97.6888 467.186 100.203 469.877 105.127 471.933C105.007 473.422 104.888 474.914 104.761 476.387C102.017 476.262 99.2718 476.135 96.527 476.01C92.5581 468.133 87.8732 456.199 87.4415 441.468C86.992 426.102 91.6502 424.061 91.3553 409.349C90.9716 390.279 82.9751 385.193 78.7149 362.255C77.0857 353.482 75.9878 342.025 77.2918 328.123Z" fill="url(#paint13_linear_393_370)"/>
<path d="M88.9028 337.861C85.1027 358.583 81.7467 380.76 79.128 404.28C75.9657 432.679 74.2779 459.452 73.6152 484.308C70.6021 484.394 67.5908 484.479 64.5777 484.564C52.7066 461.08 51.9817 445.158 53.6926 434.791C54.3517 430.798 56.1443 422.965 56.5529 411.257C56.8371 403.097 56.3166 396.886 55.6664 389.421C54.2415 373.053 52.5111 369.48 52.2624 356.961C52.0279 345.21 51.9799 339.266 55.3341 335.796C64.1709 326.652 87.16 337.051 88.9028 337.861Z" fill="url(#paint14_linear_393_370)"/>
<path d="M154.06 256.73C156.064 256.589 158.066 256.451 160.07 256.31C164.796 275.41 161.406 293.937 150.74 300.75C134.073 311.395 103.099 291.339 96.3866 269.5C93.441 259.913 94.1108 246.081 100 243.393C101.635 242.647 104.172 242.531 109.667 245.615C126.077 254.829 126.509 272.243 134.852 273.717C138.557 274.375 144.548 272.01 154.06 256.73Z" fill="url(#paint15_linear_393_370)"/>
<path d="M108.174 346.985C111.061 342.196 107.435 337.576 106.611 328.503C105.676 318.219 109.638 316.506 113.556 299.463C116.162 288.129 118.662 277.247 115.677 264.509C114.247 258.405 111.82 248.051 103.25 243.049C98.8277 240.468 92.7891 240.727 80.8948 241.349C66.1846 242.119 58.8313 242.502 53.3452 245.391C52.5422 245.814 35.8565 254.89 34.707 269.686C33.538 284.744 49.9359 286.768 52.1229 306.849C53.1054 315.863 51.3554 329.728 50.2202 338.719C49.1311 347.353 48.3797 349.563 50.0852 352.178C54.1927 358.48 66.7656 356.684 91.9114 353.093C101.775 351.683 106.019 350.56 108.174 346.985Z" fill="url(#paint16_linear_393_370)"/>
<path d="M69.9131 303.617C68.8489 307.531 65.0257 310.454 62.3644 319.974C61.7905 322.03 57.6955 336.667 63.0057 340.27C66.0721 342.35 68.8258 338.408 76.2697 337.893C89.1678 337.001 95.313 347.842 103.739 344.88C105.201 344.365 107.131 343.271 109.058 340.755C109.442 343.022 109.376 344.992 108.175 346.987C106.022 350.562 101.776 351.685 91.9126 353.093C66.7668 356.684 54.1938 358.48 50.0863 352.179C48.3826 349.565 49.1323 347.353 50.2214 338.719C51.3566 329.726 53.1065 315.861 52.1241 306.849C49.9371 286.768 33.5374 284.745 34.7082 269.686C35.0209 265.66 36.5008 262.077 38.4817 258.956C59.2838 267.373 73.2548 291.318 69.9131 303.617Z" fill="url(#paint17_linear_393_370)"/>
<path d="M43.6396 333.236L47.8022 335.894C48.5501 335.031 50.2805 333.29 52.981 332.696C56.0243 332.026 59.5188 332.988 59.5988 333.958C59.6645 334.736 57.5361 335.521 57.2075 335.642C54.5515 336.622 52.5812 335.807 51.5082 336.875C51.128 337.251 50.6554 337.955 49.5663 338.605C49.2803 338.776 48.9819 338.927 48.8237 338.989C47.0507 339.678 44.011 336.592 43.7498 336.322L43.6396 333.236Z" fill="url(#paint18_linear_393_370)"/>
<path d="M55.9353 278.649C58.9466 271.437 61.0323 260.396 56.2764 244C24.9409 256.347 8.9605 285.618 15.1999 308.82C20.3431 327.949 39.0577 337.265 43.2327 339.227C44.2045 337.015 45.1763 334.805 46.1463 332.595C41.3086 327.208 35.8563 319.242 36.6273 310.151C37.6968 297.548 49.8398 293.247 55.9353 278.649Z" fill="url(#paint19_linear_393_370)"/>
<path d="M80.1231 226.514C80.1231 226.514 79.8762 231.995 78.1742 236.101C76.6357 239.81 68.5486 242.143 66.9088 242.971C65.269 243.799 69.9806 246.22 74.7116 246.695C79.4427 247.171 92.9519 246.096 95.3876 244.303C97.8233 242.511 93.4298 242.646 90.0542 241.406C86.6769 240.166 84.7245 233.562 85.3214 230.565C85.9183 227.566 80.1231 226.514 80.1231 226.514Z" fill="url(#paint20_linear_393_370)"/>
<path d="M87.6066 224.527C90.0618 222.114 90.4047 221.833 90.6712 221C91.7442 217.655 89.1486 213.071 85.7447 211.943C85.567 211.885 83.2841 211.154 82.4136 212.144C81.6728 212.984 82.7618 214.146 82.2448 215.768C81.7598 217.285 80.4451 217.399 78.0059 219.389C75.9965 221.027 74.7494 222.047 74.4616 223.48C73.8682 226.435 77.4445 230.716 80.6103 230.601C81.7491 230.558 82.06 229.977 87.6066 224.527Z" fill="url(#paint21_linear_393_370)"/>
<path d="M80.9212 231.057C80.9212 231.057 83.531 234.012 87.5053 233.035C91.0638 232.161 90.1559 223.992 87.5514 222.688C86.6827 222.253 85.1033 222.288 83.9166 222.86C83.2148 223.198 83.0194 223.55 81.8628 224.079C80.7969 224.568 80.4575 224.5 80.1715 224.845C79.8126 225.275 79.6581 226.202 80.7826 228.437C79.9725 227.863 79.1002 227.742 78.5655 228.123C78.4802 228.183 78.2634 228.396 78.1693 228.675C77.8299 229.686 78.8817 230.715 80.9212 231.057Z" fill="url(#paint22_linear_393_370)"/>
<path d="M378.545 120.456L379.464 125.414L360.556 125.459L196.47 125.848C192.249 125.858 188.367 129.348 187.788 133.642L148.617 395.427C148.035 399.761 154.779 406.375 158.975 406.698L231.771 412.293V412.204L340.661 420.557C340.663 420.557 340.665 420.557 340.667 420.557L340.93 420.668C345.579 421.026 349.845 417.653 350.449 413.076C350.449 413.074 350.449 413.096 350.45 413.094L387.133 133.592C387.73 129.058 383.221 120.443 378.545 120.456Z" fill="url(#paint23_linear_393_370)"/>
<path d="M346.739 407.629C346.139 412.208 341.875 415.629 337.225 415.272L155.082 401.287C150.888 400.966 147.969 397.192 148.552 392.859L184.16 128.289C184.737 123.995 188.619 120.506 192.837 120.494L376.008 119.989C380.683 119.977 383.998 123.642 383.404 128.176L346.739 407.629Z" fill="url(#paint24_linear_393_370)"/>
<path d="M349.16 262.131C348.861 264.398 346.743 266.09 344.43 266.004L184.123 260.154C182.007 260.078 180.519 258.335 180.81 256.169L183.962 232.809C184.253 230.645 186.184 229.181 188.302 229.239L348.749 233.695C351.066 233.759 352.706 235.395 352.409 237.661L349.16 262.131Z" fill="white"/>
<path d="M342.952 309.597C342.653 311.869 340.534 313.807 338.221 313.692L178.035 305.779C175.921 305.674 174.45 303.65 174.741 301.483L177.917 277.671C178.209 275.506 180.158 273.649 182.274 273.735L342.558 280.2C344.871 280.294 346.507 282.387 346.208 284.655L342.952 309.597Z" fill="white"/>
<path opacity="0.1" d="M352.421 237.567C352.041 237.444 351.632 237.376 351.197 237.364L190.746 232.91C188.63 232.85 186.697 234.317 186.409 236.476L183.252 259.836C183.245 259.897 183.24 259.953 183.235 260.014C181.607 259.555 180.561 258.013 180.806 256.166L183.963 232.805C184.251 230.647 186.184 229.178 188.3 229.24L348.751 233.694C351.026 233.761 352.659 235.346 352.421 237.567Z" fill="url(#paint25_linear_393_370)"/>
<path opacity="0.1" d="M346.243 284.129C345.857 283.976 345.441 283.884 345.001 283.866L184.72 277.399C182.605 277.314 180.652 279.174 180.364 281.34L177.182 305.153C177.165 305.306 177.152 305.453 177.152 305.606C175.525 305.08 174.491 303.33 174.736 301.483L177.918 277.669C178.206 275.504 180.156 273.644 182.274 273.729L342.554 280.196C344.695 280.288 346.248 282.074 346.243 284.129Z" fill="url(#paint26_linear_393_370)"/>
<path d="M300.349 348.069C300.822 344.486 298.288 341.185 294.687 340.977L211.765 336.216C208.331 336.018 205.159 338.911 204.692 342.4L201.27 368.192C200.803 371.687 203.186 375.031 206.618 375.265L289.498 380.936C293.097 381.183 296.412 378.143 296.886 374.554L300.349 348.069Z" fill="url(#paint27_linear_393_370)"/>
<path d="M306.612 174.295C305.52 182.54 301.284 189.982 295.262 195.456C288.772 201.36 280.223 204.952 271.333 204.78C262.487 204.609 255.041 200.745 250.261 194.71C245.851 189.147 243.691 181.735 244.773 173.629C247.024 156.764 262.519 143.13 279.523 143.171C296.688 143.208 308.883 157.142 306.612 174.295Z" fill="url(#paint28_linear_393_370)"/>
<path d="M290.077 164.924C289.096 172.311 282.278 178.23 274.875 178.142C267.502 178.053 262.339 172.035 263.315 164.702C264.292 157.37 271.041 151.455 278.417 151.489C285.826 151.523 291.058 157.537 290.077 164.924Z" fill="white"/>
<path d="M295.263 195.456C288.773 201.36 280.224 204.952 271.334 204.78C262.488 204.609 255.043 200.745 250.262 194.71C255.734 187.087 264.759 182.017 274.343 182.141C283.98 182.265 291.747 187.606 295.263 195.456Z" fill="white"/>
<path opacity="0.4" d="M383.403 128.175L346.74 407.629C346.139 412.205 341.603 415.607 336.956 415.25L227.559 406.851C222.362 401.53 218.082 395.145 215.029 387.482C213.529 383.725 212.431 379.671 211.701 375.407C209.67 363.607 210.457 350.193 213.419 337.027C215.697 326.892 219.267 316.886 223.839 307.857C227.495 300.639 231.794 294.039 236.596 288.493C240.054 284.501 243.793 280.622 247.737 276.819C252.493 272.228 257.548 267.747 262.762 263.308C274.912 252.955 287.922 242.834 299.967 232.146C327.76 207.491 350.309 179.941 344.883 140.632C344.709 139.394 343.016 129.912 340.852 120.084L375.737 119.988C380.409 119.976 383.998 123.643 383.403 128.175Z" fill="white"/>
<defs>
<linearGradient id="paint0_linear_393_370" x1="333.112" y1="358.803" x2="462.872" y2="8.34862" gradientUnits="userSpaceOnUse">
<stop offset="0.00359712" stop-color="#E38DDD"/>
<stop offset="1" stop-color="#9571F6"/>
</linearGradient>
<linearGradient id="paint1_linear_393_370" x1="237.052" y1="324.205" x2="488.746" y2="324.205" gradientUnits="userSpaceOnUse">
<stop stop-color="#FF9085"/>
<stop offset="1" stop-color="#FB6FBB"/>
</linearGradient>
<linearGradient id="paint2_linear_393_370" x1="301.644" y1="264.869" x2="375.937" y2="272.974" gradientUnits="userSpaceOnUse">
<stop stop-color="#444B8C"/>
<stop offset="0.9964" stop-color="#26264F"/>
</linearGradient>
<linearGradient id="paint3_linear_393_370" x1="236.184" y1="77.5979" x2="419.89" y2="703.011" gradientUnits="userSpaceOnUse">
<stop stop-color="#444B8C"/>
<stop offset="0.9964" stop-color="#26264F"/>
</linearGradient>
<linearGradient id="paint4_linear_393_370" x1="305.023" y1="62.1934" x2="520.928" y2="646.935" gradientUnits="userSpaceOnUse">
<stop stop-color="#FFC444"/>
<stop offset="0.9964" stop-color="#F36F56"/>
</linearGradient>
<linearGradient id="paint5_linear_393_370" x1="-1581.27" y1="1689.16" x2="-1433.59" y2="1549.9" gradientUnits="userSpaceOnUse">
<stop stop-color="#311944"/>
<stop offset="1" stop-color="#893976"/>
</linearGradient>
<linearGradient id="paint6_linear_393_370" x1="45.2532" y1="152.916" x2="163.594" y2="45.5252" gradientUnits="userSpaceOnUse">
<stop stop-color="#FF9085"/>
<stop offset="1" stop-color="#FB6FBB"/>
</linearGradient>
<linearGradient id="paint7_linear_393_370" x1="165.154" y1="246.296" x2="141.703" y2="270.165" gradientUnits="userSpaceOnUse">
<stop stop-color="#FFC444"/>
<stop offset="0.9964" stop-color="#F36F56"/>
</linearGradient>
<linearGradient id="paint8_linear_393_370" x1="107.026" y1="473.03" x2="107.224" y2="420.076" gradientUnits="userSpaceOnUse">
<stop stop-color="#AA80F9"/>
<stop offset="0.9964" stop-color="#6165D7"/>
</linearGradient>
<linearGradient id="paint9_linear_393_370" x1="101.781" y1="490.047" x2="99.2595" y2="462.684" gradientUnits="userSpaceOnUse">
<stop stop-color="#FFC444"/>
<stop offset="0.9964" stop-color="#F36F56"/>
</linearGradient>
<linearGradient id="paint10_linear_393_370" x1="75.8065" y1="472.914" x2="76.0041" y2="419.959" gradientUnits="userSpaceOnUse">
<stop stop-color="#AA80F9"/>
<stop offset="0.9964" stop-color="#6165D7"/>
</linearGradient>
<linearGradient id="paint11_linear_393_370" x1="70.1398" y1="492.962" x2="67.6183" y2="465.599" gradientUnits="userSpaceOnUse">
<stop stop-color="#FFC444"/>
<stop offset="0.9964" stop-color="#F36F56"/>
</linearGradient>
<linearGradient id="paint12_linear_393_370" x1="100.823" y1="352.171" x2="81.4133" y2="451.404" gradientUnits="userSpaceOnUse">
<stop stop-color="#311944"/>
<stop offset="1" stop-color="#893976"/>
</linearGradient>
<linearGradient id="paint13_linear_393_370" x1="110.51" y1="400.695" x2="81.3486" y2="403.032" gradientUnits="userSpaceOnUse">
<stop stop-color="#311944"/>
<stop offset="1" stop-color="#893976"/>
</linearGradient>
<linearGradient id="paint14_linear_393_370" x1="94.3796" y1="406.18" x2="50.1103" y2="409.728" gradientUnits="userSpaceOnUse">
<stop stop-color="#311944"/>
<stop offset="1" stop-color="#893976"/>
</linearGradient>
<linearGradient id="paint15_linear_393_370" x1="129.347" y1="260.065" x2="96.5949" y2="470.409" gradientUnits="userSpaceOnUse">
<stop stop-color="#AA80F9"/>
<stop offset="0.9964" stop-color="#6165D7"/>
</linearGradient>
<linearGradient id="paint16_linear_393_370" x1="59.6886" y1="490.948" x2="43.8475" y2="703.236" gradientUnits="userSpaceOnUse">
<stop stop-color="#AA80F9"/>
<stop offset="0.9964" stop-color="#6165D7"/>
</linearGradient>
<linearGradient id="paint17_linear_393_370" x1="5.83094" y1="418.566" x2="93.2606" y2="268.806" gradientUnits="userSpaceOnUse">
<stop stop-color="#AA80F9"/>
<stop offset="0.9964" stop-color="#6165D7"/>
</linearGradient>
<linearGradient id="paint18_linear_393_370" x1="36.824" y1="315.018" x2="55.2635" y2="339.928" gradientUnits="userSpaceOnUse">
<stop stop-color="#FFC444"/>
<stop offset="0.9964" stop-color="#F36F56"/>
</linearGradient>
<linearGradient id="paint19_linear_393_370" x1="20.985" y1="488.06" x2="5.14389" y2="700.348" gradientUnits="userSpaceOnUse">
<stop stop-color="#AA80F9"/>
<stop offset="0.9964" stop-color="#6165D7"/>
</linearGradient>
<linearGradient id="paint20_linear_393_370" x1="89.1881" y1="252.947" x2="71.4366" y2="230.861" gradientUnits="userSpaceOnUse">
<stop stop-color="#FFC444"/>
<stop offset="0.9964" stop-color="#F36F56"/>
</linearGradient>
<linearGradient id="paint21_linear_393_370" x1="75.6906" y1="244.835" x2="85.0992" y2="213.884" gradientUnits="userSpaceOnUse">
<stop stop-color="#444B8C"/>
<stop offset="0.9964" stop-color="#3E4177"/>
</linearGradient>
<linearGradient id="paint22_linear_393_370" x1="99.6848" y1="234.035" x2="73.2207" y2="222.255" gradientUnits="userSpaceOnUse">
<stop stop-color="#FFC444"/>
<stop offset="0.9964" stop-color="#F36F56"/>
</linearGradient>
<linearGradient id="paint23_linear_393_370" x1="148.583" y1="270.576" x2="387.188" y2="270.576" gradientUnits="userSpaceOnUse">
<stop stop-color="#311944"/>
<stop offset="1" stop-color="#893976"/>
</linearGradient>
<linearGradient id="paint24_linear_393_370" x1="293.647" y1="739.869" x2="265.196" y2="247.058" gradientUnits="userSpaceOnUse">
<stop offset="0.003597" stop-color="#F36F56"/>
<stop offset="1" stop-color="#FFC444"/>
</linearGradient>
<linearGradient id="paint25_linear_393_370" x1="180.77" y1="244.627" x2="352.443" y2="244.627" gradientUnits="userSpaceOnUse">
<stop offset="0.003597" stop-color="#F36F56"/>
<stop offset="1" stop-color="#FFC444"/>
</linearGradient>
<linearGradient id="paint26_linear_393_370" x1="174.702" y1="289.667" x2="346.242" y2="289.667" gradientUnits="userSpaceOnUse">
<stop offset="0.003597" stop-color="#F36F56"/>
<stop offset="1" stop-color="#FFC444"/>
</linearGradient>
<linearGradient id="paint27_linear_393_370" x1="259.018" y1="306.297" x2="220.67" y2="549.473" gradientUnits="userSpaceOnUse">
<stop offset="0.003597" stop-color="#F36F56"/>
<stop offset="1" stop-color="#FFC444"/>
</linearGradient>
<linearGradient id="paint28_linear_393_370" x1="271.632" y1="53.1054" x2="279.822" y2="296.975" gradientUnits="userSpaceOnUse">
<stop offset="0.003597" stop-color="#F36F56"/>
<stop offset="1" stop-color="#FFC444"/>
</linearGradient>
</defs>
</svg>
